<?xml version="1.0" encoding="UTF-8"?>
<svg xmlns="http://www.w3.org/2000/svg" xmlns:xlink="http://www.w3.org/1999/xlink" viewBox="0 0 19 23.75">
   <title>phone</title>
   <g stroke="none" stroke-width="1" fill="none" fill-rule="evenodd">
      <g transform="translate(-179.000000, -82.000000)" fill="#000000" fill-rule="nonzero">
         <path d="M191.458786,93.2308962 C192.358194,92.3303941 193.808937,92.3074334 194.697247,93.1941237 L197.351268,95.8539511 C198.236274,96.7442047 198.210737,98.1935084 197.294199,99.114432 L196.459223,99.8947928 C196.068235,100.201697 195.622299,100.455015 195.144679,100.641856 C194.707898,100.812047 194.272443,100.921271 193.803047,100.977144 C192.989361,101.06156 191.895261,100.917338 190.651756,100.519444 C188.376135,99.7912962 186.102995,98.3280915 183.900522,96.1215298 C180.109271,92.323589 178.673393,89.4215096 179.061236,86.1975381 C179.111244,85.7545879 179.219702,85.3172937 179.392139,84.8639222 C179.582677,84.3772372 179.837741,83.9307722 180.192421,83.4839573 L180.938741,82.6906102 C181.837729,81.7878436 183.290376,81.7647805 184.176148,82.653056 L186.831129,85.3130254 C187.715148,86.2009148 187.692913,87.6516591 186.795421,88.5502366 L186.353748,88.9942454 L185.942321,89.4059329 C186.635934,90.6266752 187.122535,91.2836861 187.930136,92.0932297 C188.736641,92.9016778 189.392998,93.3897123 190.609125,94.0829201 L191.458786,93.2308962 Z M192.166598,93.9372967 L191.049056,95.0579482 C190.891219,95.2162234 190.647506,95.2505112 190.452126,95.1419296 C188.94408,94.3038394 188.171466,93.7510595 187.22218,92.7994858 C186.272417,91.8474391 185.721665,91.074816 184.883703,89.5626171 C184.775626,89.3675797 184.809759,89.1245497 184.96738,88.9668291 L185.645598,88.2881847 L186.087169,87.8442782 C186.60038,87.3304454 186.612936,86.5111901 186.12292,86.0190272 L183.468211,83.3593316 C182.978212,82.8679483 182.160474,82.8809312 181.657282,83.3859476 L180.949314,84.1360464 C180.684198,84.4723169 180.478173,84.8329443 180.325076,85.2239279 C180.183578,85.5960119 180.09533,85.9518195 180.054501,86.3133482 C179.709658,89.1799732 181.012284,91.8127332 184.608268,95.4150628 C186.703144,97.5138279 188.841451,98.8902412 190.956513,99.5670141 C192.076075,99.925249 193.034175,100.051543 193.692292,99.9833255 C194.070057,99.9383121 194.423294,99.8497106 194.780994,99.7103346 C195.167793,99.5590211 195.528344,99.3542072 195.808479,99.1367643 L196.597702,98.3970829 C197.119206,97.8728397 197.133644,97.0534491 196.642732,96.5596249 L193.990077,93.9011668 C193.498124,93.4101118 192.680214,93.4230568 192.166598,93.9372967 Z" />
      </g>
   </g>
   <text x="0" y="34" fill="#000000" font-size="5px" font-weight="bold" font-family="'Helvetica Neue', Helvetica, Arial-Unicode, Arial, Sans-serif">Created by Dirk de Ron</text>
   <text x="0" y="39" fill="#000000" font-size="5px" font-weight="bold" font-family="'Helvetica Neue', Helvetica, Arial-Unicode, Arial, Sans-serif">from the Noun Project</text>
</svg>