<svg width="20" height="20" viewBox="0 0 20 20" xmlns="http://www.w3.org/2000/svg">
<path d="M12.5899 11.3491C13.4988 10.4391 14.9648 10.4159 15.8625 11.312L18.5444 13.9998C19.4388 14.8994 19.413 16.364 18.4868 17.2946L17.643 18.0832C17.2479 18.3933 16.7973 18.6493 16.3146 18.8381C15.8733 19.0101 15.4332 19.1204 14.9589 19.1769C14.1366 19.2622 13.031 19.1165 11.7744 18.7144C9.47483 17.9786 7.17777 16.5 4.95211 14.2702C1.12096 10.4323 -0.330045 7.49963 0.0618802 4.24172C0.112415 3.79411 0.222013 3.35221 0.396266 2.89407C0.588809 2.40226 0.846569 1.95109 1.20498 1.49958L1.95915 0.697883C2.8676 -0.214387 4.33554 -0.237698 5.23064 0.659928L7.91357 3.3479C8.80689 4.24514 8.78442 5.71115 7.87748 6.61919L7.43115 7.06787L7.0154 7.48389C7.71631 8.71748 8.20803 9.38141 9.02413 10.1995C9.83913 11.0164 10.5024 11.5096 11.7313 12.2101L12.5899 11.3491ZM13.3052 12.0629L12.1759 13.1954C12.0164 13.3553 11.7701 13.39 11.5727 13.2803C10.0488 12.4334 9.26801 11.8748 8.30873 10.9132C7.34897 9.95109 6.79242 9.17034 5.94563 7.64222C5.83642 7.44513 5.87091 7.19954 6.03019 7.04016L6.71555 6.35438L7.16178 5.9058C7.68039 5.38655 7.69308 4.55868 7.1979 4.06133L4.51525 1.37364C4.02009 0.877082 3.19375 0.890205 2.68526 1.40054L1.96983 2.15853C1.70192 2.49834 1.49373 2.86277 1.33902 3.25787C1.19604 3.63387 1.10687 3.99342 1.06561 4.35875C0.717134 7.25555 2.03346 9.91602 5.6673 13.5563C7.78422 15.6771 9.94505 17.068 12.0824 17.7519C13.2137 18.1139 14.1819 18.2416 14.8469 18.1726C15.2287 18.1271 15.5856 18.0376 15.9471 17.8968C16.338 17.7439 16.7023 17.5369 16.9854 17.3172L17.7829 16.5697C18.3099 16.0399 18.3245 15.2119 17.8284 14.7129L15.1479 12.0264C14.6507 11.5302 13.8242 11.5433 13.3052 12.0629Z" fill="black"/>
</svg>
