<svg width="20" height="20" viewBox="0 0 20 20" fill="none" xmlns="http://www.w3.org/2000/svg">
<path d="M19.2656 14.1L16.5656 11.4C15.5656 10.4 13.8656 10.4 12.7656 11.4L12.0656 12.1C11.0656 11.5 10.4656 11 9.66561 10.3C9.06561 9.6 8.56561 9 7.96561 7.9L8.66561 7.2C9.76561 6.1 9.76561 4.4 8.66561 3.4L5.96561 0.8C5.46561 0.3 4.76561 0 4.06561 0C3.36561 0 2.66561 0.3 2.16561 0.8L1.36561 1.7C0.965608 2.1 0.765608 2.6 0.465608 3.2C0.265608 3.7 0.165608 4.2 0.065608 4.6C-0.334392 8 1.06561 11 5.06561 14.9C7.26561 17.1 9.66561 18.7 12.0656 19.4C13.0656 19.7 14.0656 19.9 14.8656 19.9C15.0656 19.9 15.2656 19.9 15.3656 19.9C15.8656 19.8 16.3656 19.7 16.7656 19.5C17.2656 19.3 17.7656 19 18.1656 18.7L19.0656 17.9C20.2656 16.9 20.2656 15.2 19.2656 14.1ZM6.26561 7.2C5.96561 7.5 5.96561 7.9 6.16561 8.2C7.06561 9.8 7.66561 10.6 8.56561 11.6C9.56561 12.6 10.3656 13.2 11.8656 14C12.1656 14.2 12.6656 14.1 12.9656 13.9L14.0656 12.8C14.4656 12.4 15.0656 12.4 15.3656 12.8L18.0656 15.5C18.4656 15.9 18.3656 16.4 18.0656 16.8L17.2656 17.4C16.9656 17.6 16.6656 17.8 16.3656 17.9C16.0656 18 15.6656 18.1 15.3656 18.2C14.6656 18.3 13.7656 18.1 12.7656 17.8C10.6656 17.1 8.56561 15.7 6.46561 13.7C2.86561 10.2 1.56561 7.6 1.86561 4.8C1.86561 4.5 1.96561 4.1 2.06561 3.8C2.26561 3.4 2.46561 3.1 2.66561 2.8L3.46561 2.1C3.66561 1.9 3.86561 1.8 4.16561 1.8C4.36561 1.8 4.66561 1.9 4.76561 2.1L7.46561 4.8C7.86561 5.2 7.76561 5.7 7.46561 6.1L6.26561 7.2Z" fill="black"/>
</svg>
